<mxfile host="app.diagrams.net" modified="2020-12-01T05:17:34.415Z" agent="5.0 (Macintosh; Intel Mac OS X 10_13_2) AppleWebKit/537.36 (KHTML, like Gecko) Chrome/86.0.4240.198 Safari/537.36" etag="ZwlYng4WNE0UVggxJQG9" version="13.10.4" type="github">
  <diagram id="JF_SLlQ0VimBdD_SWzRC" name="Page-1">
    <mxGraphModel dx="1773" dy="505" grid="1" gridSize="10" guides="1" tooltips="1" connect="1" arrows="1" fold="1" page="1" pageScale="1" pageWidth="827" pageHeight="1169" math="0" shadow="0">
      <root>
        <mxCell id="0" />
        <mxCell id="1" parent="0" />
        <mxCell id="7W7hM9b-r7az7pDfU5Lb-5" value="&lt;span style=&quot;font-size: 14px&quot;&gt;业务方&lt;/span&gt;" style="shape=umlLifeline;perimeter=lifelinePerimeter;whiteSpace=wrap;html=1;container=1;collapsible=0;recursiveResize=0;outlineConnect=0;" parent="1" vertex="1">
          <mxGeometry x="290" y="40" width="100" height="480" as="geometry" />
        </mxCell>
        <mxCell id="7W7hM9b-r7az7pDfU5Lb-6" value="&lt;font style=&quot;font-size: 14px&quot;&gt;broker&lt;/font&gt;" style="shape=umlLifeline;perimeter=lifelinePerimeter;whiteSpace=wrap;html=1;container=1;collapsible=0;recursiveResize=0;outlineConnect=0;" parent="1" vertex="1">
          <mxGeometry x="570" y="40" width="100" height="480" as="geometry" />
        </mxCell>
        <mxCell id="7W7hM9b-r7az7pDfU5Lb-21" value="" style="html=1;points=[];perimeter=orthogonalPerimeter;fontSize=14;" parent="7W7hM9b-r7az7pDfU5Lb-6" vertex="1">
          <mxGeometry x="40" y="175" width="10" height="81" as="geometry" />
        </mxCell>
        <mxCell id="7W7hM9b-r7az7pDfU5Lb-15" value="" style="shape=mxgraph.bpmn.user_task;html=1;outlineConnect=0;fontSize=14;" parent="1" vertex="1">
          <mxGeometry x="-170" y="40" width="30" height="40" as="geometry" />
        </mxCell>
        <mxCell id="7W7hM9b-r7az7pDfU5Lb-19" value="&lt;span style=&quot;font-size: 13px ; text-align: left&quot;&gt;返回信息&lt;/span&gt;" style="html=1;verticalAlign=bottom;endArrow=open;dashed=1;endSize=8;fontSize=14;entryX=1.1;entryY=0.309;entryDx=0;entryDy=0;entryPerimeter=0;" parent="1" edge="1">
          <mxGeometry relative="1" as="geometry">
            <mxPoint x="330" y="178.96299999999997" as="sourcePoint" />
            <mxPoint x="81" y="178.96299999999997" as="targetPoint" />
          </mxGeometry>
        </mxCell>
        <mxCell id="7W7hM9b-r7az7pDfU5Lb-25" value="" style="endArrow=none;dashed=1;html=1;fontSize=14;" parent="1" edge="1">
          <mxGeometry width="50" height="50" relative="1" as="geometry">
            <mxPoint x="-155" y="520" as="sourcePoint" />
            <mxPoint x="-155.5" y="80" as="targetPoint" />
          </mxGeometry>
        </mxCell>
        <mxCell id="7W7hM9b-r7az7pDfU5Lb-26" value="zpush sdk" style="shape=umlLifeline;perimeter=lifelinePerimeter;whiteSpace=wrap;html=1;container=1;collapsible=0;recursiveResize=0;outlineConnect=0;fontSize=14;" parent="1" vertex="1">
          <mxGeometry x="30" y="40" width="100" height="480" as="geometry" />
        </mxCell>
        <mxCell id="7W7hM9b-r7az7pDfU5Lb-28" value="" style="html=1;points=[];perimeter=orthogonalPerimeter;fontSize=14;" parent="1" vertex="1">
          <mxGeometry x="70" y="103" width="10" height="207" as="geometry" />
        </mxCell>
        <mxCell id="7W7hM9b-r7az7pDfU5Lb-30" value="" style="html=1;points=[];perimeter=orthogonalPerimeter;fontSize=14;" parent="1" vertex="1">
          <mxGeometry x="330" y="137" width="10" height="43" as="geometry" />
        </mxCell>
        <mxCell id="7W7hM9b-r7az7pDfU5Lb-31" value="" style="html=1;verticalAlign=bottom;endArrow=block;entryX=0;entryY=0;fontSize=14;" parent="1" source="7W7hM9b-r7az7pDfU5Lb-26" target="7W7hM9b-r7az7pDfU5Lb-30" edge="1">
          <mxGeometry relative="1" as="geometry">
            <mxPoint x="260" y="150" as="sourcePoint" />
          </mxGeometry>
        </mxCell>
        <mxCell id="7W7hM9b-r7az7pDfU5Lb-33" value="获取消息中心broker地址及相关权限" style="text;html=1;align=center;verticalAlign=middle;resizable=0;points=[];autosize=1;fontSize=14;" parent="1" vertex="1">
          <mxGeometry x="90" y="110" width="240" height="20" as="geometry" />
        </mxCell>
        <mxCell id="7W7hM9b-r7az7pDfU5Lb-36" value="" style="endArrow=classic;html=1;strokeColor=#000000;fontSize=14;" parent="1" edge="1">
          <mxGeometry width="50" height="50" relative="1" as="geometry">
            <mxPoint x="-150" y="110" as="sourcePoint" />
            <mxPoint x="70" y="110" as="targetPoint" />
          </mxGeometry>
        </mxCell>
        <mxCell id="7W7hM9b-r7az7pDfU5Lb-37" value="初始化" style="text;html=1;align=center;verticalAlign=middle;resizable=0;points=[];autosize=1;fontSize=14;" parent="1" vertex="1">
          <mxGeometry x="-80" y="90" width="60" height="20" as="geometry" />
        </mxCell>
        <mxCell id="7W7hM9b-r7az7pDfU5Lb-22" value="建立客户端与代理的mqtt连接&lt;span style=&quot;font-family: &amp;#34;verdana&amp;#34; , &amp;#34;arial&amp;#34; , &amp;#34;helvetica&amp;#34; , sans-serif ; font-size: 12px ; background-color: rgb(248 , 248 , 248)&quot;&gt;CONNECT&lt;/span&gt;" style="html=1;verticalAlign=bottom;endArrow=block;entryX=0;entryY=0;fontSize=14;" parent="1" edge="1">
          <mxGeometry x="-0.5193" y="12" relative="1" as="geometry">
            <mxPoint x="82.5" y="239.0000000000001" as="sourcePoint" />
            <mxPoint x="613" y="239.0000000000001" as="targetPoint" />
            <mxPoint as="offset" />
          </mxGeometry>
        </mxCell>
        <mxCell id="7W7hM9b-r7az7pDfU5Lb-23" value="返回确认连接消息&lt;span style=&quot;font-family: &amp;#34;verdana&amp;#34; , &amp;#34;arial&amp;#34; , &amp;#34;helvetica&amp;#34; , sans-serif ; font-size: 12px&quot;&gt;CONNACK&lt;/span&gt;" style="html=1;verticalAlign=bottom;endArrow=open;dashed=1;endSize=8;exitX=0;exitY=0.95;fontSize=14;" parent="1" source="7W7hM9b-r7az7pDfU5Lb-21" target="7W7hM9b-r7az7pDfU5Lb-26" edge="1">
          <mxGeometry x="-0.4722" y="-12" relative="1" as="geometry">
            <mxPoint x="540" y="275" as="targetPoint" />
            <mxPoint as="offset" />
          </mxGeometry>
        </mxCell>
        <mxCell id="7W7hM9b-r7az7pDfU5Lb-39" value="" style="endArrow=classic;html=1;strokeColor=#000000;fontSize=14;" parent="1" edge="1">
          <mxGeometry width="50" height="50" relative="1" as="geometry">
            <mxPoint x="-149.5" y="380" as="sourcePoint" />
            <mxPoint x="70" y="380" as="targetPoint" />
          </mxGeometry>
        </mxCell>
        <mxCell id="7W7hM9b-r7az7pDfU5Lb-40" value="" style="html=1;points=[];perimeter=orthogonalPerimeter;fontSize=14;" parent="1" vertex="1">
          <mxGeometry x="70" y="350" width="10" height="110" as="geometry" />
        </mxCell>
        <mxCell id="7W7hM9b-r7az7pDfU5Lb-41" value="订阅主题" style="text;html=1;align=center;verticalAlign=middle;resizable=0;points=[];autosize=1;fontSize=14;" parent="1" vertex="1">
          <mxGeometry x="-85" y="360" width="70" height="20" as="geometry" />
        </mxCell>
        <mxCell id="7W7hM9b-r7az7pDfU5Lb-42" value="" style="html=1;points=[];perimeter=orthogonalPerimeter;fontSize=14;" parent="1" vertex="1">
          <mxGeometry x="610" y="370" width="10" height="80" as="geometry" />
        </mxCell>
        <mxCell id="7W7hM9b-r7az7pDfU5Lb-43" value="发送订阅主题消息&lt;span style=&quot;font-family: &amp;#34;verdana&amp;#34; , &amp;#34;arial&amp;#34; , &amp;#34;helvetica&amp;#34; , sans-serif ; font-size: 12px&quot;&gt;SUBSCRIBE&lt;/span&gt;" style="html=1;verticalAlign=bottom;endArrow=block;entryX=0;entryY=0;strokeColor=#000000;fontSize=14;" parent="1" source="7W7hM9b-r7az7pDfU5Lb-26" target="7W7hM9b-r7az7pDfU5Lb-42" edge="1">
          <mxGeometry x="-0.4703" y="10" relative="1" as="geometry">
            <mxPoint x="540" y="370" as="sourcePoint" />
            <mxPoint as="offset" />
          </mxGeometry>
        </mxCell>
        <mxCell id="7W7hM9b-r7az7pDfU5Lb-44" value="返回订阅成功消息&lt;span style=&quot;font-family: &amp;#34;verdana&amp;#34; , &amp;#34;arial&amp;#34; , &amp;#34;helvetica&amp;#34; , sans-serif ; font-size: 12px ; background-color: rgb(248 , 248 , 248)&quot;&gt;SUBACK&lt;/span&gt;" style="html=1;verticalAlign=bottom;endArrow=open;dashed=1;endSize=8;exitX=0;exitY=0.95;strokeColor=#000000;fontSize=14;" parent="1" edge="1">
          <mxGeometry x="-0.5099" y="-4" relative="1" as="geometry">
            <mxPoint x="79.5" y="414" as="targetPoint" />
            <mxPoint x="610" y="414" as="sourcePoint" />
            <mxPoint as="offset" />
          </mxGeometry>
        </mxCell>
        <mxCell id="7W7hM9b-r7az7pDfU5Lb-45" value="" style="endArrow=classic;html=1;strokeColor=#000000;fontSize=14;" parent="1" source="7W7hM9b-r7az7pDfU5Lb-6" target="7W7hM9b-r7az7pDfU5Lb-26" edge="1">
          <mxGeometry width="50" height="50" relative="1" as="geometry">
            <mxPoint x="560" y="480" as="sourcePoint" />
            <mxPoint x="350" y="500" as="targetPoint" />
            <Array as="points">
              <mxPoint x="480" y="450" />
            </Array>
          </mxGeometry>
        </mxCell>
        <mxCell id="7W7hM9b-r7az7pDfU5Lb-46" value="发送已订阅主题最新内容" style="text;html=1;align=center;verticalAlign=middle;resizable=0;points=[];autosize=1;fontSize=14;" parent="1" vertex="1">
          <mxGeometry x="130" y="430" width="170" height="20" as="geometry" />
        </mxCell>
        <mxCell id="7W7hM9b-r7az7pDfU5Lb-47" value="" style="endArrow=classic;html=1;strokeColor=#000000;fontSize=14;dashed=1;" parent="1" edge="1">
          <mxGeometry width="50" height="50" relative="1" as="geometry">
            <mxPoint x="64.75" y="450" as="sourcePoint" />
            <mxPoint x="-150" y="450" as="targetPoint" />
          </mxGeometry>
        </mxCell>
        <mxCell id="7W7hM9b-r7az7pDfU5Lb-48" value="主题内容更新回调函数" style="text;html=1;align=center;verticalAlign=middle;resizable=0;points=[];autosize=1;fontSize=14;" parent="1" vertex="1">
          <mxGeometry x="-120" y="420" width="160" height="20" as="geometry" />
        </mxCell>
      </root>
    </mxGraphModel>
  </diagram>
</mxfile>
